<svg xmlns="http://www.w3.org/2000/svg" xmlns:xlink="http://www.w3.org/1999/xlink" width="500" zoomAndPan="magnify" viewBox="0 0 375 374.999991" height="500" preserveAspectRatio="xMidYMid meet" version="1.0"><defs><g/><clipPath id="f8f5528ba7"><path d="M 91.148438 61.507812 L 283.851562 61.507812 L 283.851562 254.210938 L 91.148438 254.210938 Z M 91.148438 61.507812 " clip-rule="nonzero"/></clipPath><clipPath id="38082e0b81"><path d="M 187.5 61.507812 C 134.285156 61.507812 91.148438 104.644531 91.148438 157.859375 C 91.148438 211.070312 134.285156 254.210938 187.5 254.210938 C 240.714844 254.210938 283.851562 211.070312 283.851562 157.859375 C 283.851562 104.644531 240.714844 61.507812 187.5 61.507812 Z M 187.5 61.507812 " clip-rule="nonzero"/></clipPath><clipPath id="447f1f08f3"><path d="M 117.609375 153 L 257.109375 153 L 257.109375 213.710938 L 117.609375 213.710938 Z M 117.609375 153 " clip-rule="nonzero"/></clipPath><clipPath id="30fe63bcbc"><path d="M 207 101.960938 L 225 101.960938 L 225 180 L 207 180 Z M 207 101.960938 " clip-rule="nonzero"/></clipPath></defs><g clip-path="url(#f8f5528ba7)"><g clip-path="url(#38082e0b81)"><path fill="#224e87" d="M 91.148438 61.507812 L 283.851562 61.507812 L 283.851562 254.210938 L 91.148438 254.210938 Z M 91.148438 61.507812 " fill-opacity="1" fill-rule="nonzero"/></g></g><g clip-path="url(#447f1f08f3)"><path fill="#ffffff" d="M 256.1875 153.679688 L 239.421875 153.984375 C 238.636719 153.996094 238.183594 154.882812 238.632812 155.527344 L 241.230469 159.238281 C 241.265625 159.285156 241.25 159.355469 241.203125 159.386719 L 185.5625 198.917969 C 185.492188 198.96875 185.390625 198.917969 185.390625 198.828125 L 185.390625 168.710938 C 185.390625 168.3125 185.183594 167.945312 184.839844 167.742188 C 184.5 167.539062 184.074219 167.53125 183.726562 167.722656 L 118.234375 203.332031 C 117.972656 203.476562 117.777344 203.71875 117.691406 204.003906 C 117.609375 204.289062 117.640625 204.597656 117.78125 204.859375 L 120.582031 210.007812 C 120.878906 210.554688 121.5625 210.757812 122.109375 210.460938 L 177.117188 180.546875 C 177.191406 180.507812 177.277344 180.5625 177.277344 180.644531 L 177.277344 212.492188 C 177.277344 212.816406 177.378906 213.144531 177.609375 213.371094 C 177.835938 213.589844 178.121094 213.699219 178.40625 213.699219 C 178.636719 213.699219 178.863281 213.628906 179.058594 213.492188 L 245.851562 166.039062 C 245.902344 166 245.96875 166.015625 246.003906 166.0625 L 249.367188 170.871094 C 249.820312 171.515625 250.804688 171.394531 251.089844 170.664062 L 257.125 155.015625 C 257.375 154.363281 256.886719 153.664062 256.1875 153.679688 " fill-opacity="1" fill-rule="nonzero"/></g><path fill="#497fc5" d="M 159.652344 133.277344 L 159.652344 177.410156 C 159.652344 177.449219 159.632812 177.488281 159.597656 177.507812 L 143.707031 186.148438 C 143.632812 186.1875 143.546875 186.136719 143.546875 186.054688 L 143.546875 133.277344 C 143.546875 133.21875 143.59375 133.171875 143.65625 133.171875 L 159.546875 133.171875 C 159.605469 133.171875 159.652344 133.21875 159.652344 133.277344 " fill-opacity="1" fill-rule="nonzero"/><g clip-path="url(#30fe63bcbc)"><path fill="#497fc5" d="M 224.078125 102.105469 L 224.078125 167.90625 C 224.078125 167.941406 224.058594 167.972656 224.03125 167.992188 L 208.140625 179.28125 C 208.066406 179.332031 207.96875 179.28125 207.96875 179.191406 L 207.96875 102.105469 C 207.96875 102.042969 208.015625 101.996094 208.078125 101.996094 L 223.96875 101.996094 C 224.027344 101.996094 224.078125 102.042969 224.078125 102.105469 " fill-opacity="1" fill-rule="nonzero"/></g><path fill="#497fc5" d="M 201.550781 142.289062 L 201.550781 183.910156 C 201.550781 183.945312 201.535156 183.976562 201.503906 183.996094 L 188.496094 193.242188 C 188.421875 193.292969 188.320312 193.238281 188.320312 193.152344 L 188.320312 168.710938 C 188.320312 167.289062 187.5625 165.949219 186.339844 165.226562 C 186.078125 165.070312 185.804688 164.945312 185.523438 164.855469 C 185.476562 164.839844 185.445312 164.800781 185.445312 164.753906 L 185.445312 142.289062 C 185.445312 142.226562 185.496094 142.179688 185.554688 142.179688 L 201.441406 142.179688 C 201.5 142.179688 201.550781 142.226562 201.550781 142.289062 " fill-opacity="1" fill-rule="nonzero"/><path fill="#ffffff" d="M 180.601562 115.101562 L 180.601562 166.023438 C 180.601562 166.0625 180.582031 166.097656 180.546875 166.117188 L 164.660156 174.757812 C 164.585938 174.796875 164.5 174.742188 164.5 174.660156 L 164.5 115.101562 C 164.5 115.039062 164.546875 114.992188 164.609375 114.992188 L 180.492188 114.992188 C 180.554688 114.992188 180.601562 115.039062 180.601562 115.101562 " fill-opacity="1" fill-rule="nonzero"/><g fill="#224e87" fill-opacity="1"><g transform="translate(77.757611, 282.511417)"><g><path d="M 0.828125 -8.796875 C 0.828125 -10.535156 1.203125 -12.082031 1.953125 -13.4375 C 2.703125 -14.789062 3.742188 -15.847656 5.078125 -16.609375 C 6.421875 -17.367188 7.945312 -17.75 9.65625 -17.75 C 11.738281 -17.75 13.519531 -17.195312 15 -16.09375 C 16.476562 -15 17.46875 -13.5 17.96875 -11.59375 L 13.28125 -11.59375 C 12.925781 -12.332031 12.425781 -12.890625 11.78125 -13.265625 C 11.144531 -13.648438 10.414062 -13.84375 9.59375 -13.84375 C 8.28125 -13.84375 7.210938 -13.382812 6.390625 -12.46875 C 5.578125 -11.550781 5.171875 -10.328125 5.171875 -8.796875 C 5.171875 -7.265625 5.578125 -6.039062 6.390625 -5.125 C 7.210938 -4.207031 8.28125 -3.75 9.59375 -3.75 C 10.414062 -3.75 11.144531 -3.941406 11.78125 -4.328125 C 12.425781 -4.710938 12.925781 -5.269531 13.28125 -6 L 17.96875 -6 C 17.46875 -4.101562 16.476562 -2.609375 15 -1.515625 C 13.519531 -0.421875 11.738281 0.125 9.65625 0.125 C 7.945312 0.125 6.421875 -0.253906 5.078125 -1.015625 C 3.742188 -1.773438 2.703125 -2.828125 1.953125 -4.171875 C 1.203125 -5.523438 0.828125 -7.066406 0.828125 -8.796875 Z M 0.828125 -8.796875 "/></g></g></g><g fill="#224e87" fill-opacity="1"><g transform="translate(96.804595, 282.511417)"><g><path d="M 12.96875 -17.546875 L 12.96875 -14.125 L 5.828125 -14.125 L 5.828125 -10.421875 L 11.171875 -10.421875 L 11.171875 -7.09375 L 5.828125 -7.09375 L 5.828125 0 L 1.546875 0 L 1.546875 -17.546875 Z M 12.96875 -17.546875 "/></g></g></g><g fill="#224e87" fill-opacity="1"><g transform="translate(110.477434, 282.511417)"><g><path d="M 13.203125 -12 C 12.878906 -12.582031 12.421875 -13.023438 11.828125 -13.328125 C 11.242188 -13.640625 10.550781 -13.796875 9.75 -13.796875 C 8.363281 -13.796875 7.253906 -13.34375 6.421875 -12.4375 C 5.585938 -11.53125 5.171875 -10.316406 5.171875 -8.796875 C 5.171875 -7.179688 5.609375 -5.921875 6.484375 -5.015625 C 7.359375 -4.109375 8.5625 -3.65625 10.09375 -3.65625 C 11.144531 -3.65625 12.03125 -3.921875 12.75 -4.453125 C 13.476562 -4.984375 14.007812 -5.75 14.34375 -6.75 L 8.921875 -6.75 L 8.921875 -9.90625 L 18.21875 -9.90625 L 18.21875 -5.921875 C 17.90625 -4.859375 17.367188 -3.867188 16.609375 -2.953125 C 15.847656 -2.035156 14.882812 -1.289062 13.71875 -0.71875 C 12.550781 -0.15625 11.238281 0.125 9.78125 0.125 C 8.039062 0.125 6.488281 -0.253906 5.125 -1.015625 C 3.769531 -1.773438 2.710938 -2.828125 1.953125 -4.171875 C 1.203125 -5.523438 0.828125 -7.066406 0.828125 -8.796875 C 0.828125 -10.535156 1.203125 -12.082031 1.953125 -13.4375 C 2.710938 -14.789062 3.769531 -15.847656 5.125 -16.609375 C 6.476562 -17.367188 8.019531 -17.75 9.75 -17.75 C 11.851562 -17.75 13.625 -17.238281 15.0625 -16.21875 C 16.5 -15.207031 17.453125 -13.800781 17.921875 -12 Z M 13.203125 -12 "/></g></g></g><g fill="#224e87" fill-opacity="1"><g transform="translate(129.524419, 282.511417)"><g/></g></g><g fill="#224e87" fill-opacity="1"><g transform="translate(134.823582, 282.511417)"><g><path d="M 0.828125 -8.796875 C 0.828125 -10.535156 1.203125 -12.082031 1.953125 -13.4375 C 2.703125 -14.789062 3.742188 -15.847656 5.078125 -16.609375 C 6.421875 -17.367188 7.945312 -17.75 9.65625 -17.75 C 11.738281 -17.75 13.519531 -17.195312 15 -16.09375 C 16.476562 -15 17.46875 -13.5 17.96875 -11.59375 L 13.28125 -11.59375 C 12.925781 -12.332031 12.425781 -12.890625 11.78125 -13.265625 C 11.144531 -13.648438 10.414062 -13.84375 9.59375 -13.84375 C 8.28125 -13.84375 7.210938 -13.382812 6.390625 -12.46875 C 5.578125 -11.550781 5.171875 -10.328125 5.171875 -8.796875 C 5.171875 -7.265625 5.578125 -6.039062 6.390625 -5.125 C 7.210938 -4.207031 8.28125 -3.75 9.59375 -3.75 C 10.414062 -3.75 11.144531 -3.941406 11.78125 -4.328125 C 12.425781 -4.710938 12.925781 -5.269531 13.28125 -6 L 17.96875 -6 C 17.46875 -4.101562 16.476562 -2.609375 15 -1.515625 C 13.519531 -0.421875 11.738281 0.125 9.65625 0.125 C 7.945312 0.125 6.421875 -0.253906 5.078125 -1.015625 C 3.742188 -1.773438 2.703125 -2.828125 1.953125 -4.171875 C 1.203125 -5.523438 0.828125 -7.066406 0.828125 -8.796875 Z M 0.828125 -8.796875 "/></g></g></g><g fill="#224e87" fill-opacity="1"><g transform="translate(153.870567, 282.511417)"><g><path d="M 9.84375 0.171875 C 8.195312 0.171875 6.6875 -0.207031 5.3125 -0.96875 C 3.9375 -1.738281 2.84375 -2.8125 2.03125 -4.1875 C 1.226562 -5.5625 0.828125 -7.109375 0.828125 -8.828125 C 0.828125 -10.546875 1.226562 -12.085938 2.03125 -13.453125 C 2.84375 -14.816406 3.9375 -15.878906 5.3125 -16.640625 C 6.6875 -17.410156 8.195312 -17.796875 9.84375 -17.796875 C 11.5 -17.796875 13.015625 -17.410156 14.390625 -16.640625 C 15.765625 -15.878906 16.847656 -14.816406 17.640625 -13.453125 C 18.429688 -12.085938 18.828125 -10.546875 18.828125 -8.828125 C 18.828125 -7.109375 18.425781 -5.5625 17.625 -4.1875 C 16.820312 -2.8125 15.738281 -1.738281 14.375 -0.96875 C 13.007812 -0.207031 11.5 0.171875 9.84375 0.171875 Z M 9.84375 -3.71875 C 11.25 -3.71875 12.367188 -4.1875 13.203125 -5.125 C 14.046875 -6.0625 14.46875 -7.296875 14.46875 -8.828125 C 14.46875 -10.378906 14.046875 -11.613281 13.203125 -12.53125 C 12.367188 -13.457031 11.25 -13.921875 9.84375 -13.921875 C 8.425781 -13.921875 7.296875 -13.460938 6.453125 -12.546875 C 5.617188 -11.628906 5.203125 -10.390625 5.203125 -8.828125 C 5.203125 -7.273438 5.617188 -6.035156 6.453125 -5.109375 C 7.296875 -4.179688 8.425781 -3.71875 9.84375 -3.71875 Z M 9.84375 -3.71875 "/></g></g></g><g fill="#224e87" fill-opacity="1"><g transform="translate(173.517451, 282.511417)"><g><path d="M 17.25 0 L 12.96875 0 L 5.828125 -10.828125 L 5.828125 0 L 1.546875 0 L 1.546875 -17.546875 L 5.828125 -17.546875 L 12.96875 -6.671875 L 12.96875 -17.546875 L 17.25 -17.546875 Z M 17.25 0 "/></g></g></g><g fill="#224e87" fill-opacity="1"><g transform="translate(192.314473, 282.511417)"><g><path d="M 7.90625 0.171875 C 6.613281 0.171875 5.457031 -0.0351562 4.4375 -0.453125 C 3.425781 -0.867188 2.613281 -1.484375 2 -2.296875 C 1.394531 -3.117188 1.078125 -4.101562 1.046875 -5.25 L 5.59375 -5.25 C 5.664062 -4.601562 5.890625 -4.109375 6.265625 -3.765625 C 6.648438 -3.421875 7.15625 -3.25 7.78125 -3.25 C 8.40625 -3.25 8.898438 -3.394531 9.265625 -3.6875 C 9.640625 -3.976562 9.828125 -4.382812 9.828125 -4.90625 C 9.828125 -5.332031 9.679688 -5.6875 9.390625 -5.96875 C 9.097656 -6.257812 8.738281 -6.492188 8.3125 -6.671875 C 7.882812 -6.859375 7.28125 -7.066406 6.5 -7.296875 C 5.363281 -7.648438 4.4375 -8 3.71875 -8.34375 C 3.007812 -8.695312 2.394531 -9.210938 1.875 -9.890625 C 1.351562 -10.578125 1.09375 -11.472656 1.09375 -12.578125 C 1.09375 -14.210938 1.6875 -15.488281 2.875 -16.40625 C 4.0625 -17.332031 5.601562 -17.796875 7.5 -17.796875 C 9.4375 -17.796875 10.992188 -17.332031 12.171875 -16.40625 C 13.359375 -15.488281 13.992188 -14.203125 14.078125 -12.546875 L 9.453125 -12.546875 C 9.421875 -13.117188 9.210938 -13.566406 8.828125 -13.890625 C 8.441406 -14.210938 7.945312 -14.375 7.34375 -14.375 C 6.832031 -14.375 6.414062 -14.234375 6.09375 -13.953125 C 5.78125 -13.679688 5.625 -13.289062 5.625 -12.78125 C 5.625 -12.207031 5.890625 -11.757812 6.421875 -11.4375 C 6.953125 -11.125 7.785156 -10.785156 8.921875 -10.421875 C 10.054688 -10.035156 10.976562 -9.664062 11.6875 -9.3125 C 12.394531 -8.96875 13.003906 -8.460938 13.515625 -7.796875 C 14.035156 -7.128906 14.296875 -6.269531 14.296875 -5.21875 C 14.296875 -4.21875 14.039062 -3.3125 13.53125 -2.5 C 13.03125 -1.6875 12.296875 -1.035156 11.328125 -0.546875 C 10.359375 -0.0664062 9.21875 0.171875 7.90625 0.171875 Z M 7.90625 0.171875 "/></g></g></g><g fill="#224e87" fill-opacity="1"><g transform="translate(207.687035, 282.511417)"><g><path d="M 5.75 -17.546875 L 5.75 -7.046875 C 5.75 -5.992188 6.003906 -5.1875 6.515625 -4.625 C 7.035156 -4.0625 7.796875 -3.78125 8.796875 -3.78125 C 9.796875 -3.78125 10.5625 -4.0625 11.09375 -4.625 C 11.632812 -5.1875 11.90625 -5.992188 11.90625 -7.046875 L 11.90625 -17.546875 L 16.171875 -17.546875 L 16.171875 -7.078125 C 16.171875 -5.503906 15.835938 -4.175781 15.171875 -3.09375 C 14.503906 -2.007812 13.609375 -1.191406 12.484375 -0.640625 C 11.359375 -0.0976562 10.101562 0.171875 8.71875 0.171875 C 7.34375 0.171875 6.109375 -0.0976562 5.015625 -0.640625 C 3.921875 -1.179688 3.054688 -1.992188 2.421875 -3.078125 C 1.785156 -4.171875 1.46875 -5.503906 1.46875 -7.078125 L 1.46875 -17.546875 Z M 5.75 -17.546875 "/></g></g></g><g fill="#224e87" fill-opacity="1"><g transform="translate(225.309241, 282.511417)"><g><path d="M 5.828125 -3.296875 L 11.421875 -3.296875 L 11.421875 0 L 1.546875 0 L 1.546875 -17.546875 L 5.828125 -17.546875 Z M 5.828125 -3.296875 "/></g></g></g><g fill="#224e87" fill-opacity="1"><g transform="translate(237.232347, 282.511417)"><g><path d="M 14.171875 -17.546875 L 14.171875 -14.125 L 9.53125 -14.125 L 9.53125 0 L 5.25 0 L 5.25 -14.125 L 0.59375 -14.125 L 0.59375 -17.546875 Z M 14.171875 -17.546875 "/></g></g></g><g fill="#224e87" fill-opacity="1"><g transform="translate(252.00501, 282.511417)"><g><path d="M 5.828125 -17.546875 L 5.828125 0 L 1.546875 0 L 1.546875 -17.546875 Z M 5.828125 -17.546875 "/></g></g></g><g fill="#224e87" fill-opacity="1"><g transform="translate(259.378838, 282.511417)"><g><path d="M 17.25 0 L 12.96875 0 L 5.828125 -10.828125 L 5.828125 0 L 1.546875 0 L 1.546875 -17.546875 L 5.828125 -17.546875 L 12.96875 -6.671875 L 12.96875 -17.546875 L 17.25 -17.546875 Z M 17.25 0 "/></g></g></g><g fill="#224e87" fill-opacity="1"><g transform="translate(278.175872, 282.511417)"><g><path d="M 13.203125 -12 C 12.878906 -12.582031 12.421875 -13.023438 11.828125 -13.328125 C 11.242188 -13.640625 10.550781 -13.796875 9.75 -13.796875 C 8.363281 -13.796875 7.253906 -13.34375 6.421875 -12.4375 C 5.585938 -11.53125 5.171875 -10.316406 5.171875 -8.796875 C 5.171875 -7.179688 5.609375 -5.921875 6.484375 -5.015625 C 7.359375 -4.109375 8.5625 -3.65625 10.09375 -3.65625 C 11.144531 -3.65625 12.03125 -3.921875 12.75 -4.453125 C 13.476562 -4.984375 14.007812 -5.75 14.34375 -6.75 L 8.921875 -6.75 L 8.921875 -9.90625 L 18.21875 -9.90625 L 18.21875 -5.921875 C 17.90625 -4.859375 17.367188 -3.867188 16.609375 -2.953125 C 15.847656 -2.035156 14.882812 -1.289062 13.71875 -0.71875 C 12.550781 -0.15625 11.238281 0.125 9.78125 0.125 C 8.039062 0.125 6.488281 -0.253906 5.125 -1.015625 C 3.769531 -1.773438 2.710938 -2.828125 1.953125 -4.171875 C 1.203125 -5.523438 0.828125 -7.066406 0.828125 -8.796875 C 0.828125 -10.535156 1.203125 -12.082031 1.953125 -13.4375 C 2.710938 -14.789062 3.769531 -15.847656 5.125 -16.609375 C 6.476562 -17.367188 8.019531 -17.75 9.75 -17.75 C 11.851562 -17.75 13.625 -17.238281 15.0625 -16.21875 C 16.5 -15.207031 17.453125 -13.800781 17.921875 -12 Z M 13.203125 -12 "/></g></g></g><g fill="#224e87" fill-opacity="1"><g transform="translate(88.604575, 294.728154)"><g><path d="M 4.578125 -4.875 L 2.734375 0 L 2 0 L 0.15625 -4.875 L 0.828125 -4.875 L 2.359375 -0.671875 L 3.90625 -4.875 Z M 4.578125 -4.875 "/></g></g></g><g fill="#224e87" fill-opacity="1"><g transform="translate(95.310693, 294.728154)"><g><path d="M 2.75 0.046875 C 2.300781 0.046875 1.890625 -0.0546875 1.515625 -0.265625 C 1.140625 -0.484375 0.84375 -0.78125 0.625 -1.15625 C 0.40625 -1.539062 0.296875 -1.96875 0.296875 -2.4375 C 0.296875 -2.914062 0.40625 -3.34375 0.625 -3.71875 C 0.84375 -4.101562 1.140625 -4.398438 1.515625 -4.609375 C 1.890625 -4.828125 2.300781 -4.9375 2.75 -4.9375 C 3.207031 -4.9375 3.625 -4.828125 4 -4.609375 C 4.375 -4.398438 4.664062 -4.101562 4.875 -3.71875 C 5.09375 -3.34375 5.203125 -2.914062 5.203125 -2.4375 C 5.203125 -1.957031 5.09375 -1.53125 4.875 -1.15625 C 4.664062 -0.78125 4.375 -0.484375 4 -0.265625 C 3.625 -0.0546875 3.207031 0.046875 2.75 0.046875 Z M 2.75 -0.5 C 3.09375 -0.5 3.398438 -0.578125 3.671875 -0.734375 C 3.941406 -0.898438 4.15625 -1.128906 4.3125 -1.421875 C 4.46875 -1.710938 4.546875 -2.050781 4.546875 -2.4375 C 4.546875 -2.832031 4.46875 -3.175781 4.3125 -3.46875 C 4.15625 -3.757812 3.941406 -3.984375 3.671875 -4.140625 C 3.398438 -4.296875 3.09375 -4.375 2.75 -4.375 C 2.40625 -4.375 2.097656 -4.296875 1.828125 -4.140625 C 1.554688 -3.984375 1.34375 -3.757812 1.1875 -3.46875 C 1.03125 -3.175781 0.953125 -2.832031 0.953125 -2.4375 C 0.953125 -2.050781 1.03125 -1.710938 1.1875 -1.421875 C 1.34375 -1.128906 1.554688 -0.898438 1.828125 -0.734375 C 2.097656 -0.578125 2.40625 -0.5 2.75 -0.5 Z M 2.75 -0.5 "/></g></g></g><g fill="#224e87" fill-opacity="1"><g transform="translate(102.786826, 294.728154)"><g><path d="M 3.546875 -4.875 L 3.546875 -4.359375 L 2.21875 -4.359375 L 2.21875 0 L 1.578125 0 L 1.578125 -4.359375 L 0.234375 -4.359375 L 0.234375 -4.875 Z M 3.546875 -4.875 "/></g></g></g><g fill="#224e87" fill-opacity="1"><g transform="translate(108.547927, 294.728154)"><g><path d="M 3.109375 0 L 1.953125 -2 L 1.171875 -2 L 1.171875 0 L 0.53125 0 L 0.53125 -4.875 L 2.109375 -4.875 C 2.484375 -4.875 2.796875 -4.8125 3.046875 -4.6875 C 3.304688 -4.5625 3.5 -4.390625 3.625 -4.171875 C 3.75 -3.960938 3.8125 -3.71875 3.8125 -3.4375 C 3.8125 -3.101562 3.710938 -2.804688 3.515625 -2.546875 C 3.328125 -2.296875 3.035156 -2.128906 2.640625 -2.046875 L 3.875 0 Z M 1.171875 -2.5 L 2.109375 -2.5 C 2.453125 -2.5 2.710938 -2.582031 2.890625 -2.75 C 3.066406 -2.925781 3.15625 -3.15625 3.15625 -3.4375 C 3.15625 -3.726562 3.066406 -3.953125 2.890625 -4.109375 C 2.722656 -4.273438 2.460938 -4.359375 2.109375 -4.359375 L 1.171875 -4.359375 Z M 1.171875 -2.5 "/></g></g></g><g fill="#224e87" fill-opacity="1"><g transform="translate(114.778033, 294.728154)"><g><path d="M 1.171875 -4.359375 L 1.171875 -2.734375 L 2.953125 -2.734375 L 2.953125 -2.203125 L 1.171875 -2.203125 L 1.171875 -0.53125 L 3.15625 -0.53125 L 3.15625 0 L 0.53125 0 L 0.53125 -4.890625 L 3.15625 -4.890625 L 3.15625 -4.359375 Z M 1.171875 -4.359375 "/></g></g></g><g fill="#224e87" fill-opacity="1"><g transform="translate(120.343123, 294.728154)"><g/></g></g><g fill="#224e87" fill-opacity="1"><g transform="translate(124.186185, 294.728154)"><g><path d="M 3.546875 -4.875 L 3.546875 -4.359375 L 2.21875 -4.359375 L 2.21875 0 L 1.578125 0 L 1.578125 -4.359375 L 0.234375 -4.359375 L 0.234375 -4.875 Z M 3.546875 -4.875 "/></g></g></g><g fill="#224e87" fill-opacity="1"><g transform="translate(129.947285, 294.728154)"><g><path d="M 3.109375 0 L 1.953125 -2 L 1.171875 -2 L 1.171875 0 L 0.53125 0 L 0.53125 -4.875 L 2.109375 -4.875 C 2.484375 -4.875 2.796875 -4.8125 3.046875 -4.6875 C 3.304688 -4.5625 3.5 -4.390625 3.625 -4.171875 C 3.75 -3.960938 3.8125 -3.71875 3.8125 -3.4375 C 3.8125 -3.101562 3.710938 -2.804688 3.515625 -2.546875 C 3.328125 -2.296875 3.035156 -2.128906 2.640625 -2.046875 L 3.875 0 Z M 1.171875 -2.5 L 2.109375 -2.5 C 2.453125 -2.5 2.710938 -2.582031 2.890625 -2.75 C 3.066406 -2.925781 3.15625 -3.15625 3.15625 -3.4375 C 3.15625 -3.726562 3.066406 -3.953125 2.890625 -4.109375 C 2.722656 -4.273438 2.460938 -4.359375 2.109375 -4.359375 L 1.171875 -4.359375 Z M 1.171875 -2.5 "/></g></g></g><g fill="#224e87" fill-opacity="1"><g transform="translate(136.177394, 294.728154)"><g><path d="M 3.421875 -1.078125 L 1.296875 -1.078125 L 0.90625 0 L 0.234375 0 L 2 -4.84375 L 2.734375 -4.84375 L 4.484375 0 L 3.8125 0 Z M 3.234375 -1.609375 L 2.359375 -4.0625 L 1.484375 -1.609375 Z M 3.234375 -1.609375 "/></g></g></g><g fill="#224e87" fill-opacity="1"><g transform="translate(142.869512, 294.728154)"><g><path d="M 4.375 0 L 3.734375 0 L 1.171875 -3.890625 L 1.171875 0 L 0.53125 0 L 0.53125 -4.890625 L 1.171875 -4.890625 L 3.734375 -1.015625 L 3.734375 -4.890625 L 4.375 -4.890625 Z M 4.375 0 "/></g></g></g><g fill="#224e87" fill-opacity="1"><g transform="translate(149.764638, 294.728154)"><g><path d="M 4.453125 0.921875 L 3.484375 -0.046875 C 3.242188 0.015625 3 0.046875 2.75 0.046875 C 2.300781 0.046875 1.890625 -0.0546875 1.515625 -0.265625 C 1.140625 -0.484375 0.84375 -0.78125 0.625 -1.15625 C 0.40625 -1.539062 0.296875 -1.96875 0.296875 -2.4375 C 0.296875 -2.914062 0.40625 -3.34375 0.625 -3.71875 C 0.84375 -4.101562 1.140625 -4.398438 1.515625 -4.609375 C 1.890625 -4.828125 2.300781 -4.9375 2.75 -4.9375 C 3.207031 -4.9375 3.625 -4.828125 4 -4.609375 C 4.375 -4.398438 4.664062 -4.101562 4.875 -3.71875 C 5.09375 -3.34375 5.203125 -2.914062 5.203125 -2.4375 C 5.203125 -1.976562 5.097656 -1.5625 4.890625 -1.1875 C 4.679688 -0.8125 4.398438 -0.515625 4.046875 -0.296875 L 5.28125 0.921875 Z M 0.953125 -2.4375 C 0.953125 -2.050781 1.03125 -1.710938 1.1875 -1.421875 C 1.34375 -1.128906 1.554688 -0.898438 1.828125 -0.734375 C 2.097656 -0.578125 2.40625 -0.5 2.75 -0.5 C 3.09375 -0.5 3.398438 -0.578125 3.671875 -0.734375 C 3.941406 -0.898438 4.15625 -1.128906 4.3125 -1.421875 C 4.46875 -1.710938 4.546875 -2.050781 4.546875 -2.4375 C 4.546875 -2.832031 4.46875 -3.175781 4.3125 -3.46875 C 4.15625 -3.757812 3.941406 -3.984375 3.671875 -4.140625 C 3.398438 -4.296875 3.09375 -4.375 2.75 -4.375 C 2.40625 -4.375 2.097656 -4.296875 1.828125 -4.140625 C 1.554688 -3.984375 1.34375 -3.757812 1.1875 -3.46875 C 1.03125 -3.175781 0.953125 -2.832031 0.953125 -2.4375 Z M 0.953125 -2.4375 "/></g></g></g><g fill="#224e87" fill-opacity="1"><g transform="translate(157.254773, 294.728154)"><g><path d="M 1.15625 -4.875 L 1.15625 -1.796875 C 1.15625 -1.359375 1.257812 -1.035156 1.46875 -0.828125 C 1.6875 -0.617188 1.984375 -0.515625 2.359375 -0.515625 C 2.734375 -0.515625 3.023438 -0.617188 3.234375 -0.828125 C 3.453125 -1.035156 3.5625 -1.359375 3.5625 -1.796875 L 3.5625 -4.875 L 4.203125 -4.875 L 4.203125 -1.796875 C 4.203125 -1.390625 4.117188 -1.046875 3.953125 -0.765625 C 3.785156 -0.492188 3.5625 -0.289062 3.28125 -0.15625 C 3.007812 -0.0195312 2.703125 0.046875 2.359375 0.046875 C 2.015625 0.046875 1.703125 -0.0195312 1.421875 -0.15625 C 1.148438 -0.289062 0.929688 -0.492188 0.765625 -0.765625 C 0.609375 -1.046875 0.53125 -1.390625 0.53125 -1.796875 L 0.53125 -4.875 Z M 1.15625 -4.875 "/></g></g></g><g fill="#224e87" fill-opacity="1"><g transform="translate(163.953884, 294.728154)"><g><path d="M 1.171875 -4.875 L 1.171875 0 L 0.53125 0 L 0.53125 -4.875 Z M 1.171875 -4.875 "/></g></g></g><g fill="#224e87" fill-opacity="1"><g transform="translate(167.649947, 294.728154)"><g><path d="M 1.171875 -0.515625 L 2.890625 -0.515625 L 2.890625 0 L 0.53125 0 L 0.53125 -4.875 L 1.171875 -4.875 Z M 1.171875 -0.515625 "/></g></g></g><g fill="#224e87" fill-opacity="1"><g transform="translate(172.648031, 294.728154)"><g><path d="M 1.171875 -0.515625 L 2.890625 -0.515625 L 2.890625 0 L 0.53125 0 L 0.53125 -4.875 L 1.171875 -4.875 Z M 1.171875 -0.515625 "/></g></g></g><g fill="#224e87" fill-opacity="1"><g transform="translate(177.646116, 294.728154)"><g><path d="M 1.171875 -4.875 L 1.171875 0 L 0.53125 0 L 0.53125 -4.875 Z M 1.171875 -4.875 "/></g></g></g><g fill="#224e87" fill-opacity="1"><g transform="translate(181.342179, 294.728154)"><g><path d="M 3.546875 -4.875 L 3.546875 -4.359375 L 2.21875 -4.359375 L 2.21875 0 L 1.578125 0 L 1.578125 -4.359375 L 0.234375 -4.359375 L 0.234375 -4.875 Z M 3.546875 -4.875 "/></g></g></g><g fill="#224e87" fill-opacity="1"><g transform="translate(187.103281, 294.728154)"><g><path d="M 1.171875 -4.359375 L 1.171875 -2.734375 L 2.953125 -2.734375 L 2.953125 -2.203125 L 1.171875 -2.203125 L 1.171875 -0.53125 L 3.15625 -0.53125 L 3.15625 0 L 0.53125 0 L 0.53125 -4.890625 L 3.15625 -4.890625 L 3.15625 -4.359375 Z M 2.46875 -5.9375 L 0.984375 -5.140625 L 0.984375 -5.609375 L 2.46875 -6.484375 Z M 2.46875 -5.9375 "/></g></g></g><g fill="#224e87" fill-opacity="1"><g transform="translate(192.668373, 294.728154)"><g/></g></g><g fill="#224e87" fill-opacity="1"><g transform="translate(196.511437, 294.728154)"><g><path d="M 1.171875 -4.359375 L 1.171875 -2.734375 L 2.953125 -2.734375 L 2.953125 -2.203125 L 1.171875 -2.203125 L 1.171875 -0.53125 L 3.15625 -0.53125 L 3.15625 0 L 0.53125 0 L 0.53125 -4.890625 L 3.15625 -4.890625 L 3.15625 -4.359375 Z M 1.171875 -4.359375 "/></g></g></g><g fill="#224e87" fill-opacity="1"><g transform="translate(202.076529, 294.728154)"><g><path d="M 2.09375 0.046875 C 1.769531 0.046875 1.476562 -0.0078125 1.21875 -0.125 C 0.96875 -0.238281 0.769531 -0.394531 0.625 -0.59375 C 0.476562 -0.800781 0.40625 -1.035156 0.40625 -1.296875 L 1.078125 -1.296875 C 1.097656 -1.066406 1.191406 -0.875 1.359375 -0.71875 C 1.523438 -0.5625 1.769531 -0.484375 2.09375 -0.484375 C 2.394531 -0.484375 2.628906 -0.554688 2.796875 -0.703125 C 2.972656 -0.859375 3.0625 -1.054688 3.0625 -1.296875 C 3.0625 -1.484375 3.007812 -1.632812 2.90625 -1.75 C 2.8125 -1.875 2.6875 -1.960938 2.53125 -2.015625 C 2.375 -2.078125 2.164062 -2.144531 1.90625 -2.21875 C 1.582031 -2.300781 1.320312 -2.382812 1.125 -2.46875 C 0.9375 -2.550781 0.769531 -2.679688 0.625 -2.859375 C 0.488281 -3.046875 0.421875 -3.289062 0.421875 -3.59375 C 0.421875 -3.851562 0.488281 -4.085938 0.625 -4.296875 C 0.757812 -4.503906 0.945312 -4.660156 1.1875 -4.765625 C 1.4375 -4.878906 1.722656 -4.9375 2.046875 -4.9375 C 2.503906 -4.9375 2.878906 -4.820312 3.171875 -4.59375 C 3.460938 -4.363281 3.625 -4.0625 3.65625 -3.6875 L 2.96875 -3.6875 C 2.9375 -3.875 2.832031 -4.035156 2.65625 -4.171875 C 2.488281 -4.316406 2.265625 -4.390625 1.984375 -4.390625 C 1.710938 -4.390625 1.492188 -4.320312 1.328125 -4.1875 C 1.160156 -4.050781 1.078125 -3.859375 1.078125 -3.609375 C 1.078125 -3.429688 1.125 -3.285156 1.21875 -3.171875 C 1.320312 -3.066406 1.445312 -2.984375 1.59375 -2.921875 C 1.738281 -2.859375 1.945312 -2.789062 2.21875 -2.71875 C 2.539062 -2.632812 2.800781 -2.546875 3 -2.453125 C 3.195312 -2.367188 3.363281 -2.238281 3.5 -2.0625 C 3.632812 -1.882812 3.703125 -1.640625 3.703125 -1.328125 C 3.703125 -1.085938 3.640625 -0.863281 3.515625 -0.65625 C 3.390625 -0.445312 3.203125 -0.273438 2.953125 -0.140625 C 2.710938 -0.015625 2.425781 0.046875 2.09375 0.046875 Z M 2.09375 0.046875 "/></g></g></g><g fill="#224e87" fill-opacity="1"><g transform="translate(208.159637, 294.728154)"><g><path d="M 3.546875 -4.875 L 3.546875 -4.359375 L 2.21875 -4.359375 L 2.21875 0 L 1.578125 0 L 1.578125 -4.359375 L 0.234375 -4.359375 L 0.234375 -4.875 Z M 3.546875 -4.875 "/></g></g></g><g fill="#224e87" fill-opacity="1"><g transform="translate(213.920739, 294.728154)"><g/></g></g><g fill="#224e87" fill-opacity="1"><g transform="translate(217.763803, 294.728154)"><g><path d="M 4.375 0 L 3.734375 0 L 1.171875 -3.890625 L 1.171875 0 L 0.53125 0 L 0.53125 -4.890625 L 1.171875 -4.890625 L 3.734375 -1.015625 L 3.734375 -4.890625 L 4.375 -4.890625 Z M 4.375 0 "/></g></g></g><g fill="#224e87" fill-opacity="1"><g transform="translate(224.658929, 294.728154)"><g><path d="M 2.75 0.046875 C 2.300781 0.046875 1.890625 -0.0546875 1.515625 -0.265625 C 1.140625 -0.484375 0.84375 -0.78125 0.625 -1.15625 C 0.40625 -1.539062 0.296875 -1.96875 0.296875 -2.4375 C 0.296875 -2.914062 0.40625 -3.34375 0.625 -3.71875 C 0.84375 -4.101562 1.140625 -4.398438 1.515625 -4.609375 C 1.890625 -4.828125 2.300781 -4.9375 2.75 -4.9375 C 3.207031 -4.9375 3.625 -4.828125 4 -4.609375 C 4.375 -4.398438 4.664062 -4.101562 4.875 -3.71875 C 5.09375 -3.34375 5.203125 -2.914062 5.203125 -2.4375 C 5.203125 -1.957031 5.09375 -1.53125 4.875 -1.15625 C 4.664062 -0.78125 4.375 -0.484375 4 -0.265625 C 3.625 -0.0546875 3.207031 0.046875 2.75 0.046875 Z M 2.75 -0.5 C 3.09375 -0.5 3.398438 -0.578125 3.671875 -0.734375 C 3.941406 -0.898438 4.15625 -1.128906 4.3125 -1.421875 C 4.46875 -1.710938 4.546875 -2.050781 4.546875 -2.4375 C 4.546875 -2.832031 4.46875 -3.175781 4.3125 -3.46875 C 4.15625 -3.757812 3.941406 -3.984375 3.671875 -4.140625 C 3.398438 -4.296875 3.09375 -4.375 2.75 -4.375 C 2.40625 -4.375 2.097656 -4.296875 1.828125 -4.140625 C 1.554688 -3.984375 1.34375 -3.757812 1.1875 -3.46875 C 1.03125 -3.175781 0.953125 -2.832031 0.953125 -2.4375 C 0.953125 -2.050781 1.03125 -1.710938 1.1875 -1.421875 C 1.34375 -1.128906 1.554688 -0.898438 1.828125 -0.734375 C 2.097656 -0.578125 2.40625 -0.5 2.75 -0.5 Z M 2.75 -0.5 "/></g></g></g><g fill="#224e87" fill-opacity="1"><g transform="translate(232.135063, 294.728154)"><g><path d="M 3.546875 -4.875 L 3.546875 -4.359375 L 2.21875 -4.359375 L 2.21875 0 L 1.578125 0 L 1.578125 -4.359375 L 0.234375 -4.359375 L 0.234375 -4.875 Z M 3.546875 -4.875 "/></g></g></g><g fill="#224e87" fill-opacity="1"><g transform="translate(237.896165, 294.728154)"><g><path d="M 3.109375 0 L 1.953125 -2 L 1.171875 -2 L 1.171875 0 L 0.53125 0 L 0.53125 -4.875 L 2.109375 -4.875 C 2.484375 -4.875 2.796875 -4.8125 3.046875 -4.6875 C 3.304688 -4.5625 3.5 -4.390625 3.625 -4.171875 C 3.75 -3.960938 3.8125 -3.71875 3.8125 -3.4375 C 3.8125 -3.101562 3.710938 -2.804688 3.515625 -2.546875 C 3.328125 -2.296875 3.035156 -2.128906 2.640625 -2.046875 L 3.875 0 Z M 1.171875 -2.5 L 2.109375 -2.5 C 2.453125 -2.5 2.710938 -2.582031 2.890625 -2.75 C 3.066406 -2.925781 3.15625 -3.15625 3.15625 -3.4375 C 3.15625 -3.726562 3.066406 -3.953125 2.890625 -4.109375 C 2.722656 -4.273438 2.460938 -4.359375 2.109375 -4.359375 L 1.171875 -4.359375 Z M 1.171875 -2.5 "/></g></g></g><g fill="#224e87" fill-opacity="1"><g transform="translate(244.126274, 294.728154)"><g><path d="M 1.171875 -4.359375 L 1.171875 -2.734375 L 2.953125 -2.734375 L 2.953125 -2.203125 L 1.171875 -2.203125 L 1.171875 -0.53125 L 3.15625 -0.53125 L 3.15625 0 L 0.53125 0 L 0.53125 -4.890625 L 3.15625 -4.890625 L 3.15625 -4.359375 Z M 1.171875 -4.359375 "/></g></g></g><g fill="#224e87" fill-opacity="1"><g transform="translate(249.691366, 294.728154)"><g/></g></g><g fill="#224e87" fill-opacity="1"><g transform="translate(253.534421, 294.728154)"><g><path d="M 5.484375 -4.84375 L 5.484375 0 L 4.84375 0 L 4.84375 -3.609375 L 3.234375 0 L 2.796875 0 L 1.171875 -3.625 L 1.171875 0 L 0.53125 0 L 0.53125 -4.84375 L 1.21875 -4.84375 L 3.015625 -0.84375 L 4.8125 -4.84375 Z M 5.484375 -4.84375 "/></g></g></g><g fill="#224e87" fill-opacity="1"><g transform="translate(261.535558, 294.728154)"><g><path d="M 1.171875 -4.359375 L 1.171875 -2.734375 L 2.953125 -2.734375 L 2.953125 -2.203125 L 1.171875 -2.203125 L 1.171875 -0.53125 L 3.15625 -0.53125 L 3.15625 0 L 0.53125 0 L 0.53125 -4.890625 L 3.15625 -4.890625 L 3.15625 -4.359375 Z M 2.46875 -5.9375 L 0.984375 -5.140625 L 0.984375 -5.609375 L 2.46875 -6.484375 Z M 2.46875 -5.9375 "/></g></g></g><g fill="#224e87" fill-opacity="1"><g transform="translate(267.10065, 294.728154)"><g><path d="M 3.546875 -4.875 L 3.546875 -4.359375 L 2.21875 -4.359375 L 2.21875 0 L 1.578125 0 L 1.578125 -4.359375 L 0.234375 -4.359375 L 0.234375 -4.875 Z M 3.546875 -4.875 "/></g></g></g><g fill="#224e87" fill-opacity="1"><g transform="translate(272.861743, 294.728154)"><g><path d="M 1.171875 -4.875 L 1.171875 0 L 0.53125 0 L 0.53125 -4.875 Z M 1.171875 -4.875 "/></g></g></g><g fill="#224e87" fill-opacity="1"><g transform="translate(276.557806, 294.728154)"><g><path d="M 1.171875 -4.359375 L 1.171875 -2.734375 L 2.953125 -2.734375 L 2.953125 -2.203125 L 1.171875 -2.203125 L 1.171875 -0.53125 L 3.15625 -0.53125 L 3.15625 0 L 0.53125 0 L 0.53125 -4.890625 L 3.15625 -4.890625 L 3.15625 -4.359375 Z M 1.171875 -4.359375 "/></g></g></g><g fill="#224e87" fill-opacity="1"><g transform="translate(282.122898, 294.728154)"><g><path d="M 3.109375 0 L 1.953125 -2 L 1.171875 -2 L 1.171875 0 L 0.53125 0 L 0.53125 -4.875 L 2.109375 -4.875 C 2.484375 -4.875 2.796875 -4.8125 3.046875 -4.6875 C 3.304688 -4.5625 3.5 -4.390625 3.625 -4.171875 C 3.75 -3.960938 3.8125 -3.71875 3.8125 -3.4375 C 3.8125 -3.101562 3.710938 -2.804688 3.515625 -2.546875 C 3.328125 -2.296875 3.035156 -2.128906 2.640625 -2.046875 L 3.875 0 Z M 1.171875 -2.5 L 2.109375 -2.5 C 2.453125 -2.5 2.710938 -2.582031 2.890625 -2.75 C 3.066406 -2.925781 3.15625 -3.15625 3.15625 -3.4375 C 3.15625 -3.726562 3.066406 -3.953125 2.890625 -4.109375 C 2.722656 -4.273438 2.460938 -4.359375 2.109375 -4.359375 L 1.171875 -4.359375 Z M 1.171875 -2.5 "/></g></g></g><g fill="#ffffff" fill-opacity="1"><g transform="translate(106.980877, 159.955744)"><g><path d="M -1.984375 -0.15625 C -2.378906 -0.15625 -2.726562 -0.234375 -3.03125 -0.390625 C -3.34375 -0.554688 -3.582031 -0.789062 -3.75 -1.09375 C -3.925781 -1.394531 -4.019531 -1.734375 -4.03125 -2.109375 C -4.039062 -2.578125 -3.921875 -2.984375 -3.671875 -3.328125 C -3.429688 -3.671875 -3.101562 -3.90625 -2.6875 -4.03125 L -2.671875 -2.96875 C -2.828125 -2.875 -2.945312 -2.753906 -3.03125 -2.609375 C -3.113281 -2.460938 -3.15625 -2.300781 -3.15625 -2.125 C -3.15625 -1.820312 -3.046875 -1.582031 -2.828125 -1.40625 C -2.617188 -1.226562 -2.34375 -1.140625 -2 -1.140625 C -1.65625 -1.148438 -1.378906 -1.242188 -1.171875 -1.421875 C -0.972656 -1.609375 -0.875 -1.851562 -0.875 -2.15625 C -0.875 -2.332031 -0.921875 -2.492188 -1.015625 -2.640625 C -1.109375 -2.785156 -1.238281 -2.898438 -1.40625 -2.984375 L -1.421875 -4.046875 C -0.972656 -3.929688 -0.625 -3.707031 -0.375 -3.375 C -0.132812 -3.039062 -0.0078125 -2.640625 0 -2.171875 C 0.0078125 -1.796875 -0.0664062 -1.453125 -0.234375 -1.140625 C -0.410156 -0.835938 -0.648438 -0.597656 -0.953125 -0.421875 C -1.253906 -0.253906 -1.597656 -0.164062 -1.984375 -0.15625 Z M -1.984375 -0.15625 "/></g></g></g><g fill="#ffffff" fill-opacity="1"><g transform="translate(106.950089, 154.161406)"><g><path d="M 0.171875 -2.21875 C 0.148438 -1.84375 0.046875 -1.503906 -0.140625 -1.203125 C -0.335938 -0.910156 -0.59375 -0.679688 -0.90625 -0.515625 C -1.226562 -0.347656 -1.582031 -0.273438 -1.96875 -0.296875 C -2.363281 -0.328125 -2.707031 -0.441406 -3 -0.640625 C -3.300781 -0.835938 -3.53125 -1.09375 -3.6875 -1.40625 C -3.84375 -1.726562 -3.910156 -2.078125 -3.890625 -2.453125 C -3.867188 -2.828125 -3.757812 -3.164062 -3.5625 -3.46875 C -3.375 -3.769531 -3.117188 -4 -2.796875 -4.15625 C -2.484375 -4.320312 -2.128906 -4.390625 -1.734375 -4.359375 C -1.347656 -4.335938 -1.003906 -4.226562 -0.703125 -4.03125 C -0.410156 -3.832031 -0.1875 -3.570312 -0.03125 -3.25 C 0.125 -2.9375 0.191406 -2.59375 0.171875 -2.21875 Z M -0.71875 -2.265625 C -0.695312 -2.585938 -0.785156 -2.847656 -0.984375 -3.046875 C -1.179688 -3.253906 -1.453125 -3.363281 -1.796875 -3.375 C -2.148438 -3.394531 -2.4375 -3.316406 -2.65625 -3.140625 C -2.875 -2.972656 -2.992188 -2.726562 -3.015625 -2.40625 C -3.023438 -2.09375 -2.929688 -1.832031 -2.734375 -1.625 C -2.546875 -1.414062 -2.273438 -1.300781 -1.921875 -1.28125 C -1.578125 -1.269531 -1.289062 -1.351562 -1.0625 -1.53125 C -0.84375 -1.707031 -0.726562 -1.953125 -0.71875 -2.265625 Z M -0.71875 -2.265625 "/></g></g></g><g fill="#ffffff" fill-opacity="1"><g transform="translate(107.360421, 148.245963)"><g><path d="M -3.75 -1.796875 L -1.40625 -1.484375 C -1.164062 -1.453125 -0.976562 -1.484375 -0.84375 -1.578125 C -0.707031 -1.679688 -0.628906 -1.847656 -0.609375 -2.078125 C -0.578125 -2.304688 -0.613281 -2.488281 -0.71875 -2.625 C -0.820312 -2.757812 -0.992188 -2.84375 -1.234375 -2.875 L -3.578125 -3.1875 L -3.453125 -4.140625 L -1.109375 -3.828125 C -0.753906 -3.785156 -0.460938 -3.671875 -0.234375 -3.484375 C -0.015625 -3.304688 0.132812 -3.082031 0.21875 -2.8125 C 0.3125 -2.550781 0.335938 -2.265625 0.296875 -1.953125 C 0.253906 -1.640625 0.15625 -1.367188 0 -1.140625 C -0.15625 -0.921875 -0.359375 -0.753906 -0.609375 -0.640625 C -0.867188 -0.523438 -1.175781 -0.488281 -1.53125 -0.53125 L -3.875 -0.84375 Z M -3.75 -1.796875 "/></g></g></g><g fill="#ffffff" fill-opacity="1"><g transform="translate(108.122365, 142.818727)"><g><path d="M 0.46875 -2.328125 L -1.171875 -1.8125 L -1.21875 -1.578125 L 0.25 -1.28125 L 0.0625 -0.34375 L -3.8125 -1.109375 L -3.484375 -2.703125 C -3.429688 -3.003906 -3.328125 -3.25 -3.171875 -3.4375 C -3.023438 -3.632812 -2.847656 -3.769531 -2.640625 -3.84375 C -2.429688 -3.914062 -2.21875 -3.929688 -2 -3.890625 C -1.726562 -3.835938 -1.507812 -3.71875 -1.34375 -3.53125 C -1.175781 -3.34375 -1.070312 -3.097656 -1.03125 -2.796875 L 0.671875 -3.390625 Z M -1.875 -1.703125 L -1.75 -2.296875 C -1.71875 -2.460938 -1.738281 -2.597656 -1.8125 -2.703125 C -1.882812 -2.804688 -2 -2.875 -2.15625 -2.90625 C -2.300781 -2.9375 -2.421875 -2.914062 -2.515625 -2.84375 C -2.617188 -2.769531 -2.6875 -2.648438 -2.71875 -2.484375 L -2.84375 -1.890625 Z M -1.875 -1.703125 "/></g></g></g><g fill="#ffffff" fill-opacity="1"><g transform="translate(109.182799, 137.742236)"><g><path d="M -3.015625 -4.109375 L -2.265625 -3.90625 L -2.53125 -2.890625 L 0.546875 -2.078125 L 0.296875 -1.140625 L -2.78125 -1.953125 L -3.046875 -0.953125 L -3.796875 -1.15625 Z M -3.015625 -4.109375 "/></g></g></g><g fill="#ffffff" fill-opacity="1"><g transform="translate(110.455116, 133.076636)"><g><path d="M 0.21875 -2.890625 L -0.25 -1.5 L 0.34375 -1.03125 L 0.03125 -0.09375 L -3.265625 -2.6875 L -2.90625 -3.75 L 1.296875 -3.859375 L 0.96875 -2.890625 Z M -0.546875 -2.875 L -2.078125 -2.890625 L -0.859375 -1.96875 Z M -0.546875 -2.875 "/></g></g></g><g fill="#ffffff" fill-opacity="1"><g transform="translate(112.299791, 127.731544)"><g><path d="M -1.359375 -3.796875 C -1.503906 -3.785156 -1.632812 -3.726562 -1.75 -3.625 C -1.863281 -3.53125 -1.957031 -3.398438 -2.03125 -3.234375 C -2.144531 -2.941406 -2.144531 -2.671875 -2.03125 -2.421875 C -1.914062 -2.171875 -1.695312 -1.976562 -1.375 -1.84375 C -1.039062 -1.695312 -0.742188 -1.675781 -0.484375 -1.78125 C -0.222656 -1.882812 -0.0234375 -2.097656 0.109375 -2.421875 C 0.203125 -2.640625 0.222656 -2.847656 0.171875 -3.046875 C 0.128906 -3.242188 0.0195312 -3.414062 -0.15625 -3.5625 L -0.625 -2.4375 L -1.28125 -2.71875 L -0.484375 -4.65625 L 0.34375 -4.3125 C 0.539062 -4.144531 0.703125 -3.941406 0.828125 -3.703125 C 0.953125 -3.472656 1.023438 -3.210938 1.046875 -2.921875 C 1.066406 -2.628906 1.007812 -2.328125 0.875 -2.015625 C 0.726562 -1.660156 0.515625 -1.375 0.234375 -1.15625 C -0.046875 -0.945312 -0.359375 -0.820312 -0.703125 -0.78125 C -1.046875 -0.738281 -1.394531 -0.789062 -1.75 -0.9375 C -2.113281 -1.082031 -2.40625 -1.296875 -2.625 -1.578125 C -2.84375 -1.859375 -2.96875 -2.164062 -3 -2.5 C -3.039062 -2.84375 -2.988281 -3.195312 -2.84375 -3.5625 C -2.65625 -4 -2.394531 -4.328125 -2.0625 -4.546875 C -1.726562 -4.765625 -1.351562 -4.84375 -0.9375 -4.78125 Z M -1.359375 -3.796875 "/></g></g></g><g fill="#ffffff" fill-opacity="1"><g transform="translate(114.593313, 122.400337)"><g><path d="M -2.28125 -2.578125 L -1.5625 -2.234375 L -0.984375 -3.40625 L -0.3125 -3.078125 L -0.890625 -1.90625 L -0.109375 -1.515625 L 0.546875 -2.84375 L 1.234375 -2.5 L 0.15625 -0.3125 L -3.390625 -2.0625 L -2.3125 -4.25 L -1.625 -3.90625 Z M -2.28125 -2.578125 "/></g></g></g><g fill="#ffffff" fill-opacity="1"><g transform="translate(116.672382, 118.317175)"><g/></g></g><g fill="#ffffff" fill-opacity="1"><g transform="translate(118.002663, 115.937925)"><g><path d="M -2.03125 -2.796875 L -1.34375 -2.375 L -0.671875 -3.46875 L -0.046875 -3.078125 L -0.71875 -1.984375 L 0.03125 -1.53125 L 0.796875 -2.78125 L 1.453125 -2.375 L 0.171875 -0.296875 L -3.203125 -2.359375 L -1.921875 -4.4375 L -1.265625 -4.046875 Z M -2.03125 -2.796875 "/></g></g></g><g fill="#ffffff" fill-opacity="1"><g transform="translate(120.409186, 112.066885)"><g><path d="M 2.234375 -3.1875 L 1.6875 -2.390625 L -1.25 -2.484375 L 0.75 -1.078125 L 0.203125 -0.28125 L -3.03125 -2.5625 L -2.484375 -3.359375 L 0.46875 -3.25 L -1.546875 -4.671875 L -1 -5.46875 Z M 2.234375 -3.1875 "/></g></g></g><g fill="#ffffff" fill-opacity="1"><g transform="translate(123.792859, 107.403188)"><g/></g></g><g fill="#ffffff" fill-opacity="1"><g transform="translate(125.508276, 105.265238)"><g/></g></g><g fill="#ffffff" fill-opacity="1"><g transform="translate(127.262474, 103.190233)"><g><path d="M 1.40625 -2.53125 L 0.40625 -1.46875 L 0.75 -0.796875 L 0.0625 -0.0625 L -1.859375 -3.8125 L -1.078125 -4.625 L 2.78125 -2.96875 L 2.078125 -2.21875 Z M 0.703125 -2.859375 L -0.6875 -3.484375 L 0.046875 -2.140625 Z M 0.703125 -2.859375 "/></g></g></g><g fill="#ffffff" fill-opacity="1"><g transform="translate(131.176131, 99.100825)"><g><path d="M 1.328125 -1.1875 C 1.117188 -0.988281 0.894531 -0.847656 0.65625 -0.765625 C 0.425781 -0.679688 0.203125 -0.65625 -0.015625 -0.6875 C -0.242188 -0.726562 -0.453125 -0.84375 -0.640625 -1.03125 L 0.109375 -1.734375 C 0.222656 -1.628906 0.335938 -1.578125 0.453125 -1.578125 C 0.566406 -1.585938 0.675781 -1.632812 0.78125 -1.71875 C 0.882812 -1.820312 0.941406 -1.925781 0.953125 -2.03125 C 0.972656 -2.144531 0.945312 -2.242188 0.875 -2.328125 C 0.800781 -2.390625 0.71875 -2.421875 0.625 -2.421875 C 0.53125 -2.421875 0.4375 -2.40625 0.34375 -2.375 C 0.25 -2.34375 0.117188 -2.285156 -0.046875 -2.203125 C -0.296875 -2.085938 -0.503906 -2 -0.671875 -1.9375 C -0.835938 -1.882812 -1.015625 -1.875 -1.203125 -1.90625 C -1.398438 -1.945312 -1.582031 -2.0625 -1.75 -2.25 C -2 -2.507812 -2.097656 -2.804688 -2.046875 -3.140625 C -2.003906 -3.484375 -1.828125 -3.800781 -1.515625 -4.09375 C -1.191406 -4.382812 -0.859375 -4.539062 -0.515625 -4.5625 C -0.179688 -4.59375 0.113281 -4.484375 0.375 -4.234375 L -0.390625 -3.515625 C -0.472656 -3.609375 -0.570312 -3.648438 -0.6875 -3.640625 C -0.800781 -3.640625 -0.910156 -3.59375 -1.015625 -3.5 C -1.097656 -3.425781 -1.144531 -3.335938 -1.15625 -3.234375 C -1.164062 -3.140625 -1.128906 -3.046875 -1.046875 -2.953125 C -0.953125 -2.867188 -0.835938 -2.835938 -0.703125 -2.859375 C -0.566406 -2.890625 -0.378906 -2.96875 -0.140625 -3.09375 C 0.109375 -3.207031 0.316406 -3.289062 0.484375 -3.34375 C 0.648438 -3.394531 0.828125 -3.40625 1.015625 -3.375 C 1.203125 -3.34375 1.378906 -3.238281 1.546875 -3.0625 C 1.691406 -2.894531 1.785156 -2.703125 1.828125 -2.484375 C 1.878906 -2.273438 1.863281 -2.054688 1.78125 -1.828125 C 1.695312 -1.609375 1.546875 -1.394531 1.328125 -1.1875 Z M 1.328125 -1.1875 "/></g></g></g><g fill="#ffffff" fill-opacity="1"><g transform="translate(134.84342, 95.735091)"><g><path d="M 1.40625 -1.109375 C 1.175781 -0.921875 0.941406 -0.789062 0.703125 -0.71875 C 0.460938 -0.644531 0.234375 -0.632812 0.015625 -0.6875 C -0.203125 -0.738281 -0.394531 -0.867188 -0.5625 -1.078125 L 0.21875 -1.734375 C 0.320312 -1.617188 0.429688 -1.554688 0.546875 -1.546875 C 0.660156 -1.546875 0.769531 -1.585938 0.875 -1.671875 C 0.988281 -1.765625 1.054688 -1.863281 1.078125 -1.96875 C 1.109375 -2.070312 1.085938 -2.171875 1.015625 -2.265625 C 0.953125 -2.335938 0.867188 -2.375 0.765625 -2.375 C 0.671875 -2.382812 0.578125 -2.375 0.484375 -2.34375 C 0.390625 -2.320312 0.253906 -2.273438 0.078125 -2.203125 C -0.171875 -2.097656 -0.378906 -2.023438 -0.546875 -1.984375 C -0.722656 -1.941406 -0.90625 -1.941406 -1.09375 -1.984375 C -1.289062 -2.035156 -1.46875 -2.15625 -1.625 -2.34375 C -1.851562 -2.625 -1.929688 -2.929688 -1.859375 -3.265625 C -1.785156 -3.597656 -1.585938 -3.898438 -1.265625 -4.171875 C -0.921875 -4.441406 -0.578125 -4.582031 -0.234375 -4.59375 C 0.0976562 -4.601562 0.394531 -4.472656 0.65625 -4.203125 L -0.15625 -3.546875 C -0.238281 -3.640625 -0.335938 -3.6875 -0.453125 -3.6875 C -0.566406 -3.6875 -0.675781 -3.640625 -0.78125 -3.546875 C -0.875 -3.472656 -0.929688 -3.390625 -0.953125 -3.296875 C -0.972656 -3.210938 -0.941406 -3.125 -0.859375 -3.03125 C -0.773438 -2.9375 -0.664062 -2.894531 -0.53125 -2.90625 C -0.394531 -2.925781 -0.203125 -2.988281 0.046875 -3.09375 C 0.304688 -3.1875 0.519531 -3.253906 0.6875 -3.296875 C 0.863281 -3.335938 1.046875 -3.335938 1.234375 -3.296875 C 1.421875 -3.253906 1.585938 -3.140625 1.734375 -2.953125 C 1.878906 -2.785156 1.96875 -2.59375 2 -2.375 C 2.03125 -2.15625 1.992188 -1.9375 1.890625 -1.71875 C 1.796875 -1.5 1.632812 -1.296875 1.40625 -1.109375 Z M 1.40625 -1.109375 "/></g></g></g><g fill="#ffffff" fill-opacity="1"><g transform="translate(138.704994, 92.6)"><g><path d="M -1.265625 -3.96875 L 0.109375 -2.0625 C 0.253906 -1.863281 0.410156 -1.742188 0.578125 -1.703125 C 0.742188 -1.671875 0.921875 -1.722656 1.109375 -1.859375 C 1.296875 -1.992188 1.398438 -2.144531 1.421875 -2.3125 C 1.441406 -2.488281 1.378906 -2.675781 1.234375 -2.875 L -0.140625 -4.78125 L 0.65625 -5.34375 L 2.03125 -3.4375 C 2.238281 -3.144531 2.351562 -2.851562 2.375 -2.5625 C 2.394531 -2.28125 2.335938 -2.015625 2.203125 -1.765625 C 2.078125 -1.515625 1.882812 -1.300781 1.625 -1.125 C 1.375 -0.9375 1.113281 -0.820312 0.84375 -0.78125 C 0.570312 -0.738281 0.300781 -0.769531 0.03125 -0.875 C -0.226562 -0.988281 -0.460938 -1.191406 -0.671875 -1.484375 L -2.046875 -3.390625 Z M -1.265625 -3.96875 "/></g></g></g><g fill="#ffffff" fill-opacity="1"><g transform="translate(143.180058, 89.437554)"><g><path d="M 2.015625 -1.265625 L 0.515625 -2.078125 L 0.3125 -1.96875 L 1.109375 -0.703125 L 0.296875 -0.1875 L -1.796875 -3.546875 L -0.421875 -4.40625 C -0.160156 -4.570312 0.0859375 -4.664062 0.328125 -4.6875 C 0.578125 -4.707031 0.796875 -4.664062 0.984375 -4.5625 C 1.179688 -4.457031 1.34375 -4.3125 1.46875 -4.125 C 1.613281 -3.882812 1.675781 -3.640625 1.65625 -3.390625 C 1.632812 -3.140625 1.523438 -2.898438 1.328125 -2.671875 L 2.921875 -1.828125 Z M -0.046875 -2.546875 L 0.453125 -2.859375 C 0.609375 -2.953125 0.695312 -3.054688 0.71875 -3.171875 C 0.75 -3.296875 0.722656 -3.425781 0.640625 -3.5625 C 0.554688 -3.695312 0.457031 -3.773438 0.34375 -3.796875 C 0.226562 -3.816406 0.09375 -3.78125 -0.0625 -3.6875 L -0.5625 -3.375 Z M -0.046875 -2.546875 "/></g></g></g><g fill="#ffffff" fill-opacity="1"><g transform="translate(147.594372, 86.728789)"><g><path d="M 2.15625 -1.953125 L 0.859375 -1.265625 L 0.96875 -0.515625 L 0.078125 -0.046875 L -0.515625 -4.203125 L 0.46875 -4.734375 L 3.59375 -1.921875 L 2.6875 -1.4375 Z M 1.59375 -2.46875 L 0.46875 -3.53125 L 0.734375 -2.015625 Z M 1.59375 -2.46875 "/></g></g></g><g fill="#ffffff" fill-opacity="1"><g transform="translate(152.603314, 84.104905)"><g><path d="M 3.546875 -1.59375 L 2.671875 -1.1875 L 0.203125 -2.75 L 1.203125 -0.53125 L 0.3125 -0.140625 L -1.296875 -3.75 L -0.40625 -4.140625 L 2.0625 -2.5625 L 1.0625 -4.796875 L 1.9375 -5.203125 Z M 3.546875 -1.59375 "/></g></g></g><g fill="#ffffff" fill-opacity="1"><g transform="translate(157.862213, 81.810137)"><g><path d="M -0.5 -1.921875 C -0.632812 -2.296875 -0.675781 -2.65625 -0.625 -3 C -0.570312 -3.34375 -0.429688 -3.644531 -0.203125 -3.90625 C 0.0234375 -4.175781 0.316406 -4.378906 0.671875 -4.515625 C 1.109375 -4.671875 1.53125 -4.6875 1.9375 -4.5625 C 2.34375 -4.445312 2.671875 -4.210938 2.921875 -3.859375 L 1.921875 -3.5 C 1.785156 -3.613281 1.632812 -3.6875 1.46875 -3.71875 C 1.3125 -3.75 1.148438 -3.738281 0.984375 -3.6875 C 0.691406 -3.582031 0.492188 -3.398438 0.390625 -3.140625 C 0.285156 -2.878906 0.296875 -2.585938 0.421875 -2.265625 C 0.535156 -1.941406 0.710938 -1.710938 0.953125 -1.578125 C 1.203125 -1.453125 1.472656 -1.441406 1.765625 -1.546875 C 1.929688 -1.597656 2.066406 -1.691406 2.171875 -1.828125 C 2.273438 -1.960938 2.332031 -2.125 2.34375 -2.3125 L 3.34375 -2.671875 C 3.394531 -2.210938 3.300781 -1.8125 3.0625 -1.46875 C 2.832031 -1.125 2.5 -0.875 2.0625 -0.71875 C 1.707031 -0.582031 1.351562 -0.539062 1 -0.59375 C 0.644531 -0.65625 0.335938 -0.800781 0.078125 -1.03125 C -0.179688 -1.269531 -0.375 -1.566406 -0.5 -1.921875 Z M -0.5 -1.921875 "/></g></g></g><g fill="#ffffff" fill-opacity="1"><g transform="translate(163.338331, 79.889753)"><g><path d="M 0.375 -3.4375 L 0.59375 -2.671875 L 1.828125 -3.03125 L 2.046875 -2.3125 L 0.8125 -1.953125 L 1.046875 -1.109375 L 2.453125 -1.515625 L 2.671875 -0.78125 L 0.328125 -0.09375 L -0.78125 -3.890625 L 1.5625 -4.578125 L 1.78125 -3.84375 Z M 0.375 -3.4375 "/></g></g></g><g fill="#ffffff" fill-opacity="1"><g transform="translate(167.729129, 78.645435)"><g><path d="M 1.75 -0.34375 C 1.46875 -0.28125 1.203125 -0.269531 0.953125 -0.3125 C 0.703125 -0.363281 0.492188 -0.460938 0.328125 -0.609375 C 0.160156 -0.765625 0.0390625 -0.960938 -0.03125 -1.203125 L 0.96875 -1.4375 C 1.007812 -1.289062 1.082031 -1.191406 1.1875 -1.140625 C 1.289062 -1.085938 1.410156 -1.078125 1.546875 -1.109375 C 1.691406 -1.140625 1.796875 -1.195312 1.859375 -1.28125 C 1.921875 -1.363281 1.9375 -1.460938 1.90625 -1.578125 C 1.882812 -1.671875 1.832031 -1.738281 1.75 -1.78125 C 1.675781 -1.832031 1.585938 -1.863281 1.484375 -1.875 C 1.390625 -1.894531 1.253906 -1.910156 1.078125 -1.921875 C 0.796875 -1.941406 0.566406 -1.972656 0.390625 -2.015625 C 0.210938 -2.054688 0.0546875 -2.140625 -0.078125 -2.265625 C -0.222656 -2.398438 -0.328125 -2.585938 -0.390625 -2.828125 C -0.460938 -3.191406 -0.394531 -3.503906 -0.1875 -3.765625 C 0.0195312 -4.023438 0.332031 -4.203125 0.75 -4.296875 C 1.175781 -4.398438 1.539062 -4.378906 1.84375 -4.234375 C 2.15625 -4.085938 2.363281 -3.828125 2.46875 -3.453125 L 1.453125 -3.21875 C 1.421875 -3.34375 1.351562 -3.4375 1.25 -3.5 C 1.144531 -3.5625 1.023438 -3.578125 0.890625 -3.546875 C 0.785156 -3.515625 0.703125 -3.457031 0.640625 -3.375 C 0.578125 -3.300781 0.5625 -3.203125 0.59375 -3.078125 C 0.625 -2.960938 0.703125 -2.878906 0.828125 -2.828125 C 0.960938 -2.785156 1.164062 -2.757812 1.4375 -2.75 C 1.695312 -2.707031 1.914062 -2.664062 2.09375 -2.625 C 2.269531 -2.59375 2.429688 -2.515625 2.578125 -2.390625 C 2.722656 -2.273438 2.820312 -2.097656 2.875 -1.859375 C 2.925781 -1.648438 2.914062 -1.441406 2.84375 -1.234375 C 2.769531 -1.023438 2.640625 -0.84375 2.453125 -0.6875 C 2.273438 -0.53125 2.039062 -0.414062 1.75 -0.34375 Z M 1.75 -0.34375 "/></g></g></g><g fill="#ffffff" fill-opacity="1"><g transform="translate(172.61193, 77.591315)"><g/></g></g><g fill="#ffffff" fill-opacity="1"><g transform="translate(175.298058, 77.123909)"><g><path d="M 0.875 -3.328125 L 0.984375 -2.546875 L 2.28125 -2.71875 L 2.375 -1.96875 L 1.078125 -1.796875 L 1.203125 -0.9375 L 2.65625 -1.125 L 2.75 -0.359375 L 0.34375 -0.046875 L -0.171875 -3.96875 L 2.234375 -4.28125 L 2.328125 -3.515625 Z M 0.875 -3.328125 "/></g></g></g><g fill="#ffffff" fill-opacity="1"><g transform="translate(179.828236, 76.563003)"><g><path d="M 2.890625 -4.171875 L 2.953125 -3.40625 L 1.921875 -3.328125 L 2.15625 -0.15625 L 1.1875 -0.09375 L 0.953125 -3.265625 L -0.09375 -3.1875 L -0.15625 -3.953125 Z M 2.890625 -4.171875 "/></g></g></g><g fill="#ffffff" fill-opacity="1"><g transform="translate(184.680238, 76.267333)"><g/></g></g><g fill="#ffffff" fill-opacity="1"><g transform="translate(187.396406, 76.19497)"><g><path d="M 0.234375 -1.984375 C 0.242188 -2.378906 0.335938 -2.722656 0.515625 -3.015625 C 0.691406 -3.316406 0.9375 -3.546875 1.25 -3.703125 C 1.5625 -3.867188 1.90625 -3.945312 2.28125 -3.9375 C 2.75 -3.925781 3.148438 -3.789062 3.484375 -3.53125 C 3.816406 -3.28125 4.03125 -2.941406 4.125 -2.515625 L 3.0625 -2.546875 C 2.988281 -2.703125 2.878906 -2.828125 2.734375 -2.921875 C 2.585938 -3.015625 2.425781 -3.0625 2.25 -3.0625 C 1.945312 -3.070312 1.703125 -2.972656 1.515625 -2.765625 C 1.328125 -2.566406 1.226562 -2.296875 1.21875 -1.953125 C 1.21875 -1.609375 1.300781 -1.328125 1.46875 -1.109375 C 1.644531 -0.898438 1.882812 -0.789062 2.1875 -0.78125 C 2.363281 -0.78125 2.523438 -0.820312 2.671875 -0.90625 C 2.828125 -0.988281 2.945312 -1.113281 3.03125 -1.28125 L 4.09375 -1.25 C 3.96875 -0.8125 3.734375 -0.472656 3.390625 -0.234375 C 3.046875 -0.00390625 2.640625 0.101562 2.171875 0.09375 C 1.796875 0.0820312 1.457031 -0.0078125 1.15625 -0.1875 C 0.851562 -0.375 0.617188 -0.625 0.453125 -0.9375 C 0.296875 -1.25 0.222656 -1.597656 0.234375 -1.984375 Z M 0.234375 -1.984375 "/></g></g></g><g fill="#ffffff" fill-opacity="1"><g transform="translate(193.185541, 76.4017)"><g><path d="M 2.203125 0.265625 C 1.828125 0.234375 1.492188 0.113281 1.203125 -0.09375 C 0.921875 -0.300781 0.703125 -0.566406 0.546875 -0.890625 C 0.398438 -1.222656 0.347656 -1.578125 0.390625 -1.953125 C 0.421875 -2.347656 0.539062 -2.6875 0.75 -2.96875 C 0.96875 -3.257812 1.238281 -3.472656 1.5625 -3.609375 C 1.882812 -3.753906 2.234375 -3.8125 2.609375 -3.78125 C 2.984375 -3.738281 3.316406 -3.613281 3.609375 -3.40625 C 3.898438 -3.207031 4.117188 -2.945312 4.265625 -2.625 C 4.410156 -2.300781 4.46875 -1.941406 4.4375 -1.546875 C 4.394531 -1.171875 4.265625 -0.835938 4.046875 -0.546875 C 3.835938 -0.253906 3.570312 -0.0351562 3.25 0.109375 C 2.925781 0.253906 2.578125 0.304688 2.203125 0.265625 Z M 2.28125 -0.625 C 2.601562 -0.59375 2.867188 -0.671875 3.078125 -0.859375 C 3.285156 -1.046875 3.410156 -1.304688 3.453125 -1.640625 C 3.484375 -1.992188 3.414062 -2.285156 3.25 -2.515625 C 3.082031 -2.742188 2.835938 -2.875 2.515625 -2.90625 C 2.203125 -2.9375 1.941406 -2.859375 1.734375 -2.671875 C 1.523438 -2.484375 1.40625 -2.210938 1.375 -1.859375 C 1.332031 -1.523438 1.394531 -1.242188 1.5625 -1.015625 C 1.726562 -0.785156 1.96875 -0.65625 2.28125 -0.625 Z M 2.28125 -0.625 "/></g></g></g><g fill="#ffffff" fill-opacity="1"><g transform="translate(199.078635, 77.048153)"><g><path d="M 3.828125 0.671875 L 2.875 0.5 L 1.71875 -2.1875 L 1.296875 0.21875 L 0.34375 0.0625 L 1.015625 -3.828125 L 1.96875 -3.671875 L 3.125 -0.984375 L 3.546875 -3.390625 L 4.5 -3.21875 Z M 3.828125 0.671875 "/></g></g></g><g fill="#ffffff" fill-opacity="1"><g transform="translate(204.726713, 78.093112)"><g><path d="M 1.71875 0.46875 C 1.4375 0.394531 1.195312 0.28125 1 0.125 C 0.800781 -0.0195312 0.65625 -0.195312 0.5625 -0.40625 C 0.476562 -0.613281 0.460938 -0.84375 0.515625 -1.09375 L 1.515625 -0.859375 C 1.492188 -0.710938 1.515625 -0.59375 1.578125 -0.5 C 1.640625 -0.40625 1.738281 -0.34375 1.875 -0.3125 C 2.007812 -0.269531 2.125 -0.269531 2.21875 -0.3125 C 2.320312 -0.351562 2.390625 -0.429688 2.421875 -0.546875 C 2.441406 -0.640625 2.425781 -0.722656 2.375 -0.796875 C 2.320312 -0.878906 2.253906 -0.953125 2.171875 -1.015625 C 2.097656 -1.078125 1.976562 -1.15625 1.8125 -1.25 C 1.582031 -1.394531 1.394531 -1.519531 1.25 -1.625 C 1.113281 -1.738281 1.007812 -1.882812 0.9375 -2.0625 C 0.863281 -2.25 0.859375 -2.460938 0.921875 -2.703125 C 1.003906 -3.054688 1.195312 -3.300781 1.5 -3.4375 C 1.8125 -3.582031 2.175781 -3.601562 2.59375 -3.5 C 3.019531 -3.40625 3.332031 -3.222656 3.53125 -2.953125 C 3.738281 -2.679688 3.8125 -2.363281 3.75 -2 L 2.734375 -2.25 C 2.765625 -2.375 2.742188 -2.484375 2.671875 -2.578125 C 2.609375 -2.671875 2.507812 -2.734375 2.375 -2.765625 C 2.257812 -2.796875 2.160156 -2.785156 2.078125 -2.734375 C 1.992188 -2.691406 1.9375 -2.613281 1.90625 -2.5 C 1.882812 -2.375 1.921875 -2.257812 2.015625 -2.15625 C 2.109375 -2.0625 2.273438 -1.953125 2.515625 -1.828125 C 2.742188 -1.671875 2.925781 -1.535156 3.0625 -1.421875 C 3.195312 -1.304688 3.300781 -1.160156 3.375 -0.984375 C 3.445312 -0.804688 3.457031 -0.601562 3.40625 -0.375 C 3.351562 -0.15625 3.25 0.0234375 3.09375 0.171875 C 2.9375 0.328125 2.738281 0.429688 2.5 0.484375 C 2.269531 0.546875 2.007812 0.539062 1.71875 0.46875 Z M 1.71875 0.46875 "/></g></g></g><g fill="#ffffff" fill-opacity="1"><g transform="translate(209.55407, 79.320017)"><g><path d="M 2.1875 -2.65625 L 1.953125 -1.890625 L 3.203125 -1.515625 L 2.984375 -0.796875 L 1.734375 -1.171875 L 1.46875 -0.34375 L 2.875 0.078125 L 2.65625 0.8125 L 0.328125 0.09375 L 1.484375 -3.6875 L 3.8125 -2.96875 L 3.59375 -2.234375 Z M 2.1875 -2.65625 "/></g></g></g><g fill="#ffffff" fill-opacity="1"><g transform="translate(213.914024, 80.714957)"><g><path d="M 2.578125 -3.265625 L 1.234375 0.453125 L 0.328125 0.109375 L 1.671875 -3.609375 Z M 2.578125 -3.265625 "/></g></g></g><g fill="#ffffff" fill-opacity="1"><g transform="translate(216.910176, 81.820314)"><g><path d="M 1.5 -0.1875 L 2.65625 0.296875 L 2.375 0.984375 L 0.3125 0.125 L 1.828125 -3.53125 L 2.734375 -3.15625 Z M 1.5 -0.1875 "/></g></g></g><g fill="#ffffff" fill-opacity="1"><g transform="translate(220.793486, 83.481008)"><g/></g></g><g fill="#ffffff" fill-opacity="1"><g transform="translate(223.259843, 84.643049)"><g><path d="M 2.625 -2.21875 L 2.265625 -1.515625 L 3.421875 -0.921875 L 3.078125 -0.25 L 1.921875 -0.84375 L 1.515625 -0.0625 L 2.828125 0.609375 L 2.46875 1.28125 L 0.3125 0.15625 L 2.140625 -3.34375 L 4.296875 -2.21875 L 3.9375 -1.546875 Z M 2.625 -2.21875 "/></g></g></g><g fill="#ffffff" fill-opacity="1"><g transform="translate(227.287294, 86.777395)"><g><path d="M 3.328125 2.015625 L 2.5 1.515625 L 2.390625 -1.390625 L 1.125 0.6875 L 0.296875 0.171875 L 2.34375 -3.203125 L 3.171875 -2.6875 L 3.28125 0.234375 L 4.546875 -1.859375 L 5.375 -1.359375 Z M 3.328125 2.015625 "/></g></g></g><g fill="#ffffff" fill-opacity="1"><g transform="translate(232.172047, 89.832793)"><g/></g></g><g fill="#ffffff" fill-opacity="1"><g transform="translate(234.419113, 91.359724)"><g><path d="M 4.015625 -0.34375 C 4.035156 -0.5 4.015625 -0.640625 3.953125 -0.765625 C 3.890625 -0.898438 3.785156 -1.023438 3.640625 -1.140625 C 3.390625 -1.328125 3.128906 -1.394531 2.859375 -1.34375 C 2.585938 -1.300781 2.347656 -1.144531 2.140625 -0.875 C 1.921875 -0.582031 1.828125 -0.296875 1.859375 -0.015625 C 1.890625 0.265625 2.039062 0.507812 2.3125 0.71875 C 2.5 0.863281 2.691406 0.9375 2.890625 0.9375 C 3.097656 0.945312 3.300781 0.882812 3.5 0.75 L 2.53125 0.015625 L 2.96875 -0.5625 L 4.625 0.703125 L 4.078125 1.421875 C 3.878906 1.578125 3.644531 1.679688 3.375 1.734375 C 3.113281 1.796875 2.84375 1.800781 2.5625 1.75 C 2.28125 1.695312 2.003906 1.566406 1.734375 1.359375 C 1.429688 1.128906 1.207031 0.847656 1.0625 0.515625 C 0.925781 0.191406 0.882812 -0.140625 0.9375 -0.484375 C 0.988281 -0.835938 1.128906 -1.164062 1.359375 -1.46875 C 1.597656 -1.78125 1.875 -2.003906 2.1875 -2.140625 C 2.507812 -2.273438 2.84375 -2.320312 3.1875 -2.28125 C 3.53125 -2.238281 3.859375 -2.097656 4.171875 -1.859375 C 4.546875 -1.566406 4.789062 -1.226562 4.90625 -0.84375 C 5.03125 -0.46875 5.015625 -0.0859375 4.859375 0.296875 Z M 4.015625 -0.34375 "/></g></g></g><g fill="#ffffff" fill-opacity="1"><g transform="translate(238.994428, 94.929579)"><g><path d="M 3.078125 -1.546875 L 2.546875 -0.953125 L 3.53125 -0.109375 L 3.046875 0.46875 L 2.0625 -0.375 L 1.484375 0.28125 L 2.59375 1.25 L 2.09375 1.828125 L 0.265625 0.21875 L 2.859375 -2.765625 L 4.6875 -1.15625 L 4.1875 -0.578125 Z M 3.078125 -1.546875 "/></g></g></g><g fill="#ffffff" fill-opacity="1"><g transform="translate(242.415041, 97.950456)"><g><path d="M 1.234375 1.28125 C 1.023438 1.070312 0.875 0.851562 0.78125 0.625 C 0.6875 0.394531 0.65625 0.171875 0.6875 -0.046875 C 0.71875 -0.273438 0.820312 -0.488281 1 -0.6875 L 1.734375 0.046875 C 1.640625 0.148438 1.597656 0.257812 1.609375 0.375 C 1.617188 0.488281 1.671875 0.59375 1.765625 0.6875 C 1.867188 0.789062 1.972656 0.847656 2.078125 0.859375 C 2.191406 0.867188 2.289062 0.832031 2.375 0.75 C 2.4375 0.6875 2.460938 0.609375 2.453125 0.515625 C 2.441406 0.421875 2.414062 0.328125 2.375 0.234375 C 2.34375 0.148438 2.28125 0.0234375 2.1875 -0.140625 C 2.0625 -0.390625 1.96875 -0.597656 1.90625 -0.765625 C 1.851562 -0.929688 1.835938 -1.109375 1.859375 -1.296875 C 1.878906 -1.492188 1.976562 -1.679688 2.15625 -1.859375 C 2.414062 -2.117188 2.710938 -2.226562 3.046875 -2.1875 C 3.390625 -2.15625 3.710938 -1.988281 4.015625 -1.6875 C 4.328125 -1.382812 4.503906 -1.0625 4.546875 -0.71875 C 4.597656 -0.382812 4.5 -0.078125 4.25 0.203125 L 3.5 -0.53125 C 3.582031 -0.625 3.617188 -0.726562 3.609375 -0.84375 C 3.597656 -0.96875 3.546875 -1.078125 3.453125 -1.171875 C 3.367188 -1.253906 3.28125 -1.296875 3.1875 -1.296875 C 3.09375 -1.296875 3.003906 -1.253906 2.921875 -1.171875 C 2.828125 -1.078125 2.796875 -0.960938 2.828125 -0.828125 C 2.859375 -0.691406 2.945312 -0.507812 3.09375 -0.28125 C 3.195312 -0.0390625 3.28125 0.160156 3.34375 0.328125 C 3.414062 0.503906 3.4375 0.6875 3.40625 0.875 C 3.382812 1.0625 3.285156 1.238281 3.109375 1.40625 C 2.960938 1.5625 2.785156 1.664062 2.578125 1.71875 C 2.367188 1.78125 2.144531 1.773438 1.90625 1.703125 C 1.675781 1.628906 1.453125 1.488281 1.234375 1.28125 Z M 1.234375 1.28125 "/></g></g></g><g fill="#ffffff" fill-opacity="1"><g transform="translate(245.939654, 101.467619)"><g><path d="M 5.09375 -0.28125 L 4.515625 0.234375 L 3.8125 -0.546875 L 1.453125 1.59375 L 0.796875 0.875 L 3.15625 -1.265625 L 2.453125 -2.03125 L 3.03125 -2.546875 Z M 5.09375 -0.28125 "/></g></g></g><g fill="#ffffff" fill-opacity="1"><g transform="translate(249.154741, 105.108037)"><g><path d="M 3.890625 -1.484375 L 0.828125 1.015625 L 0.21875 0.265625 L 3.28125 -2.234375 Z M 3.890625 -1.484375 "/></g></g></g><g fill="#ffffff" fill-opacity="1"><g transform="translate(251.164913, 107.572874)"><g><path d="M 1.28125 1.828125 C 1.050781 1.523438 0.914062 1.195312 0.875 0.84375 C 0.84375 0.488281 0.894531 0.148438 1.03125 -0.171875 C 1.175781 -0.503906 1.40625 -0.785156 1.71875 -1.015625 C 2.03125 -1.242188 2.363281 -1.375 2.71875 -1.40625 C 3.082031 -1.445312 3.421875 -1.390625 3.734375 -1.234375 C 4.054688 -1.085938 4.332031 -0.863281 4.5625 -0.5625 C 4.78125 -0.257812 4.910156 0.0625 4.953125 0.40625 C 4.992188 0.757812 4.941406 1.097656 4.796875 1.421875 C 4.648438 1.753906 4.421875 2.035156 4.109375 2.265625 C 3.796875 2.492188 3.457031 2.625 3.09375 2.65625 C 2.738281 2.695312 2.398438 2.644531 2.078125 2.5 C 1.765625 2.351562 1.5 2.128906 1.28125 1.828125 Z M 2 1.296875 C 2.1875 1.554688 2.414062 1.703125 2.6875 1.734375 C 2.96875 1.765625 3.25 1.675781 3.53125 1.46875 C 3.8125 1.257812 3.984375 1.019531 4.046875 0.75 C 4.109375 0.476562 4.046875 0.210938 3.859375 -0.046875 C 3.671875 -0.296875 3.429688 -0.4375 3.140625 -0.46875 C 2.859375 -0.507812 2.578125 -0.425781 2.296875 -0.21875 C 2.015625 -0.0078125 1.847656 0.226562 1.796875 0.5 C 1.742188 0.78125 1.8125 1.046875 2 1.296875 Z M 2 1.296875 "/></g></g></g><g fill="#ffffff" fill-opacity="1"><g transform="translate(254.604593, 112.401217)"><g><path d="M 2.046875 3.296875 L 1.546875 2.484375 L 2.75 -0.171875 L 0.6875 1.109375 L 0.1875 0.296875 L 3.546875 -1.796875 L 4.046875 -0.984375 L 2.828125 1.6875 L 4.90625 0.390625 L 5.40625 1.203125 Z M 2.046875 3.296875 "/></g></g></g><g fill="#ffffff" fill-opacity="1"><g transform="translate(257.577424, 117.337052)"><g/></g></g><g fill="#ffffff" fill-opacity="1"><g transform="translate(258.888488, 119.717593)"><g><path d="M 4.359375 -0.078125 C 4.546875 0.296875 4.632812 0.65625 4.625 1 C 4.613281 1.351562 4.507812 1.671875 4.3125 1.953125 C 4.113281 2.242188 3.835938 2.476562 3.484375 2.65625 C 3.140625 2.820312 2.796875 2.890625 2.453125 2.859375 C 2.109375 2.835938 1.789062 2.722656 1.5 2.515625 C 1.21875 2.304688 0.984375 2.015625 0.796875 1.640625 L 0.15625 0.3125 L 3.71875 -1.40625 Z M 1.515625 1.234375 C 1.679688 1.554688 1.898438 1.765625 2.171875 1.859375 C 2.441406 1.953125 2.738281 1.921875 3.0625 1.765625 C 3.394531 1.597656 3.609375 1.378906 3.703125 1.109375 C 3.796875 0.835938 3.757812 0.539062 3.59375 0.21875 L 3.40625 -0.1875 L 1.328125 0.828125 Z M 1.515625 1.234375 "/></g></g></g><g fill="#ffffff" fill-opacity="1"><g transform="translate(261.284138, 124.779933)"><g><path d="M 4.15625 -0.28125 L 1.96875 0.609375 C 1.738281 0.691406 1.585938 0.804688 1.515625 0.953125 C 1.441406 1.109375 1.445312 1.296875 1.53125 1.515625 C 1.625 1.722656 1.75 1.859375 1.90625 1.921875 C 2.0625 1.992188 2.253906 1.988281 2.484375 1.90625 L 4.671875 1.015625 L 5.03125 1.90625 L 2.84375 2.796875 C 2.507812 2.929688 2.203125 2.972656 1.921875 2.921875 C 1.640625 2.867188 1.390625 2.75 1.171875 2.5625 C 0.960938 2.375 0.800781 2.132812 0.6875 1.84375 C 0.570312 1.550781 0.523438 1.265625 0.546875 0.984375 C 0.566406 0.710938 0.664062 0.460938 0.84375 0.234375 C 1.019531 0.015625 1.273438 -0.160156 1.609375 -0.296875 L 3.796875 -1.1875 Z M 4.15625 -0.28125 "/></g></g></g><g fill="#ffffff" fill-opacity="1"><g transform="translate(263.268036, 129.909125)"><g/></g></g><g fill="#ffffff" fill-opacity="1"><g transform="translate(264.14806, 132.484461)"><g><path d="M 0.65625 2.28125 L 1.875 1.0625 L 1.796875 0.84375 L 0.359375 1.265625 L 0.09375 0.328125 L 3.890625 -0.78125 L 4.34375 0.78125 C 4.425781 1.082031 4.445312 1.351562 4.40625 1.59375 C 4.363281 1.832031 4.265625 2.03125 4.109375 2.1875 C 3.960938 2.34375 3.78125 2.453125 3.5625 2.515625 C 3.300781 2.597656 3.050781 2.597656 2.8125 2.515625 C 2.582031 2.429688 2.378906 2.265625 2.203125 2.015625 L 0.96875 3.3125 Z M 2.4375 0.65625 L 2.609375 1.21875 C 2.660156 1.382812 2.738281 1.5 2.84375 1.5625 C 2.957031 1.632812 3.085938 1.644531 3.234375 1.59375 C 3.390625 1.550781 3.492188 1.472656 3.546875 1.359375 C 3.609375 1.253906 3.613281 1.117188 3.5625 0.953125 L 3.390625 0.390625 Z M 2.4375 0.65625 "/></g></g></g><g fill="#ffffff" fill-opacity="1"><g transform="translate(265.534361, 137.494199)"><g><path d="M 4.140625 0.375 L 0.296875 1.28125 L 0.078125 0.328125 L 3.921875 -0.578125 Z M 4.140625 0.375 "/></g></g></g><g fill="#ffffff" fill-opacity="1"><g transform="translate(266.247694, 140.600312)"><g><path d="M 0.265625 1.765625 C 0.210938 1.484375 0.21875 1.21875 0.28125 0.96875 C 0.34375 0.71875 0.445312 0.507812 0.59375 0.34375 C 0.75 0.1875 0.957031 0.078125 1.21875 0.015625 L 1.390625 1.03125 C 1.253906 1.070312 1.15625 1.140625 1.09375 1.234375 C 1.03125 1.335938 1.007812 1.457031 1.03125 1.59375 C 1.0625 1.738281 1.113281 1.84375 1.1875 1.90625 C 1.269531 1.976562 1.367188 2.003906 1.484375 1.984375 C 1.578125 1.972656 1.648438 1.925781 1.703125 1.84375 C 1.753906 1.769531 1.789062 1.679688 1.8125 1.578125 C 1.832031 1.472656 1.851562 1.328125 1.875 1.140625 C 1.90625 0.878906 1.945312 0.660156 2 0.484375 C 2.050781 0.304688 2.140625 0.148438 2.265625 0.015625 C 2.398438 -0.117188 2.59375 -0.210938 2.84375 -0.265625 C 3.207031 -0.328125 3.515625 -0.242188 3.765625 -0.015625 C 4.015625 0.203125 4.175781 0.519531 4.25 0.9375 C 4.332031 1.375 4.296875 1.738281 4.140625 2.03125 C 3.984375 2.332031 3.71875 2.53125 3.34375 2.625 L 3.15625 1.59375 C 3.28125 1.570312 3.375 1.507812 3.4375 1.40625 C 3.5 1.300781 3.519531 1.179688 3.5 1.046875 C 3.476562 0.929688 3.425781 0.84375 3.34375 0.78125 C 3.269531 0.726562 3.171875 0.710938 3.046875 0.734375 C 2.921875 0.753906 2.832031 0.828125 2.78125 0.953125 C 2.738281 1.085938 2.707031 1.289062 2.6875 1.5625 C 2.632812 1.832031 2.582031 2.050781 2.53125 2.21875 C 2.488281 2.382812 2.398438 2.535156 2.265625 2.671875 C 2.140625 2.816406 1.960938 2.914062 1.734375 2.96875 C 1.515625 3 1.300781 2.972656 1.09375 2.890625 C 0.894531 2.816406 0.722656 2.6875 0.578125 2.5 C 0.429688 2.3125 0.328125 2.066406 0.265625 1.765625 Z M 0.265625 1.765625 "/></g></g></g><g fill="#ffffff" fill-opacity="1"><g transform="translate(267.102139, 145.496375)"><g><path d="M -0.3125 3.234375 L 0.296875 2.640625 C 0.242188 2.492188 0.210938 2.347656 0.203125 2.203125 C 0.160156 1.828125 0.207031 1.476562 0.34375 1.15625 C 0.488281 0.84375 0.703125 0.578125 0.984375 0.359375 C 1.265625 0.140625 1.597656 0.0078125 1.984375 -0.03125 C 2.378906 -0.0703125 2.738281 -0.0195312 3.0625 0.125 C 3.394531 0.269531 3.660156 0.484375 3.859375 0.765625 C 4.066406 1.046875 4.191406 1.375 4.234375 1.75 C 4.273438 2.125 4.226562 2.476562 4.09375 2.8125 C 3.96875 3.144531 3.757812 3.414062 3.46875 3.625 C 3.175781 3.832031 2.832031 3.957031 2.4375 4 C 2.101562 4.03125 1.789062 3.988281 1.5 3.875 C 1.207031 3.769531 0.957031 3.613281 0.75 3.40625 L -0.1875 4.390625 Z M 2.09375 0.953125 C 1.75 0.992188 1.484375 1.117188 1.296875 1.328125 C 1.117188 1.535156 1.050781 1.796875 1.09375 2.109375 C 1.125 2.429688 1.25 2.675781 1.46875 2.84375 C 1.695312 3.007812 1.984375 3.070312 2.328125 3.03125 C 2.679688 2.988281 2.953125 2.863281 3.140625 2.65625 C 3.328125 2.445312 3.40625 2.179688 3.375 1.859375 C 3.332031 1.546875 3.195312 1.304688 2.96875 1.140625 C 2.738281 0.972656 2.445312 0.910156 2.09375 0.953125 Z M 2.09375 0.953125 "/></g></g></g><g fill="#ffffff" fill-opacity="1"><g transform="translate(267.702878, 151.408347)"><g><path d="M 4 1.140625 L 1.640625 1.234375 C 1.398438 1.242188 1.21875 1.304688 1.09375 1.421875 C 0.976562 1.546875 0.925781 1.722656 0.9375 1.953125 C 0.945312 2.179688 1.015625 2.351562 1.140625 2.46875 C 1.273438 2.582031 1.460938 2.632812 1.703125 2.625 L 4.0625 2.53125 L 4.109375 3.5 L 1.75 3.59375 C 1.394531 3.601562 1.085938 3.535156 0.828125 3.390625 C 0.578125 3.253906 0.382812 3.0625 0.25 2.8125 C 0.113281 2.5625 0.0390625 2.28125 0.03125 1.96875 C 0.0195312 1.65625 0.0703125 1.375 0.1875 1.125 C 0.300781 0.875 0.476562 0.671875 0.71875 0.515625 C 0.957031 0.359375 1.253906 0.273438 1.609375 0.265625 L 3.96875 0.171875 Z M 4 1.140625 "/></g></g></g><g fill="#ffffff" fill-opacity="1"><g transform="translate(267.865037, 156.890329)"><g><path d="M 3.15625 1.375 L 2.359375 1.359375 L 2.328125 2.65625 L 1.578125 2.640625 L 1.609375 1.34375 L 0.734375 1.328125 L 0.703125 2.796875 L -0.0625 2.78125 L 0 0.34375 L 3.953125 0.421875 L 3.890625 2.859375 L 3.125 2.84375 Z M 3.15625 1.375 "/></g></g></g></svg>